# Blender v2.79 (sub 0) OBJ File: 'wall.blend'
# www.blender.org
mtllib wall.mtl
o Cube
v 4.741646 -0.293545 -1.457351
v 4.741646 -0.293545 1.248097
v -4.741648 -0.293545 1.248096
v -4.741645 -0.293545 -1.457353
v -4.741645 0.852007 -1.457353
v -4.741648 0.852007 1.248096
v 4.741646 0.852007 1.248097
v 4.741646 0.852007 -1.457351
v -4.741645 0.852007 -1.457353
v -4.741648 0.852007 1.248096
v 4.741646 0.852007 1.248097
v 4.741646 0.852007 -1.457351
v -4.741645 1.295992 -1.457353
v -4.741648 1.295992 0.290060
v 4.741646 1.295992 0.290061
v 4.741646 1.295992 -1.457351
v 0.000000 -0.293545 -1.457352
v -0.000000 -0.293545 1.248097
v -0.000000 0.852007 1.248097
v 0.000000 0.852007 -1.457352
v -0.000000 0.852007 1.248097
v 0.000000 0.852007 -1.457352
v -0.000000 1.295992 0.290061
v 0.000000 1.295992 -1.457352
v -2.370822 -0.293545 -1.457353
v -2.370824 -0.293545 1.248096
v -2.370824 0.852007 1.248096
v -2.370822 0.852007 -1.457353
v -2.370824 0.852007 1.248096
v -2.370822 0.852007 -1.457353
v -2.370824 1.295992 0.290061
v -2.370822 1.295992 -1.457353
v 2.422728 -0.293545 -1.457352
v 2.422728 -0.293545 1.248097
v 2.422728 0.852007 1.248097
v 2.422728 0.852007 -1.457352
v 2.422728 0.852007 1.248097
v 2.422728 0.852007 -1.457352
v 2.422728 1.295992 0.290061
v 2.422728 1.295992 -1.457352
v -2.370824 4.236159 0.290061
v -4.741648 4.236159 0.290060
v 4.741646 4.236159 -1.457351
v 4.741646 4.236159 0.290061
v -4.741645 4.236159 -1.457353
v -2.370822 4.236159 -1.457353
v 2.422728 4.236159 0.290061
v -0.000000 4.236159 0.290061
v 2.422728 4.236159 -1.457352
v 0.000000 4.236159 -1.457352
v -2.370824 7.595285 0.290061
v -4.741648 7.595285 0.290060
v 4.741646 7.595285 -1.457351
v 4.741646 7.595285 0.290061
v -4.741645 7.595285 -1.457353
v -2.370822 7.595285 -1.457353
v 2.422728 7.595285 0.290061
v -0.000000 7.595285 0.290061
v 2.422728 7.595285 -1.457352
v 0.000000 7.595285 -1.457352
v -2.370824 8.188883 0.631494
v -4.741648 8.188883 0.631494
v 4.741646 8.188883 -1.457351
v 4.741646 8.188883 0.631495
v -4.741645 8.188883 -1.457353
v -2.370822 8.188883 -1.457353
v 2.422728 8.188883 0.631495
v -0.000000 8.188883 0.631494
v 2.422728 8.188883 -1.457352
v 0.000000 8.188883 -1.457352
v -2.370824 9.499411 0.631494
v -4.741648 9.499411 0.631494
v 4.741646 9.499411 -1.457351
v 4.741646 9.499411 0.631495
v -4.741645 9.499411 -1.457353
v -2.370822 9.499411 -1.457353
v 2.422728 9.499411 0.631495
v -0.000000 9.499411 0.631494
v 2.422728 9.499411 -1.457352
v 0.000000 9.499411 -1.457352
vt 0.143276 0.625000
vt 0.000000 0.625000
vt 0.000000 0.500000
vt 0.143276 0.500000
vt 0.952639 0.622263
vt 0.891972 0.622263
vt 0.891972 0.500000
vt 0.952639 0.500000
vt 0.777013 0.642643
vt 0.716347 0.642643
vt 0.716347 0.500000
vt 0.777013 0.500000
vt 0.831621 0.875000
vt 0.891972 0.875000
vt 0.891972 1.000000
vt 0.831621 1.000000
vt 0.000000 0.000000
vt 0.000000 0.000000
vt 0.000000 0.000000
vt 0.000000 0.000000
vt 0.716347 0.642643
vt 0.655680 0.642643
vt 0.655680 0.500000
vt 0.716347 0.500000
vt 0.286552 0.955928
vt 0.337288 0.932519
vt 0.429828 0.932519
vt 0.429828 0.955928
vt 0.000000 0.000000
vt 0.000000 0.000000
vt 0.000000 0.000000
vt 0.000000 0.000000
vt 0.000000 0.000000
vt 0.000000 0.000000
vt 0.000000 0.000000
vt 0.000000 0.000000
vt 0.143276 0.932519
vt 0.143276 0.777501
vt 0.235816 0.777501
vt 0.235816 0.932519
vt 0.777013 0.875000
vt 0.831621 0.875000
vt 0.831621 1.000000
vt 0.777013 1.000000
vt 0.457952 0.122263
vt 0.434439 0.122263
vt 0.434439 0.000000
vt 0.457952 0.000000
vt 0.429828 0.642643
vt 0.429828 0.500000
vt 0.453341 0.550512
vt 0.453341 0.642643
vt 0.457952 0.375000
vt 0.434439 0.375000
vt 0.434439 0.250000
vt 0.457952 0.250000
vt 0.777013 0.622263
vt 0.831621 0.622263
vt 0.831621 0.750000
vt 0.777013 0.750000
vt 0.278733 0.375000
vt 0.278733 0.250000
vt 0.000000 0.000000
vt 0.000000 0.000000
vt 0.000000 0.000000
vt 0.000000 0.000000
vt 0.000000 0.000000
vt 0.000000 0.000000
vt 0.000000 0.000000
vt 0.000000 0.000000
vt 0.831621 0.622263
vt 0.891972 0.622263
vt 0.891972 0.750000
vt 0.831621 0.750000
vt 0.952639 0.875000
vt 0.891972 0.875000
vt 0.891972 0.750000
vt 0.952639 0.750000
vt 0.143276 0.877737
vt 0.000000 0.877737
vt 0.000000 0.750000
vt 0.143276 0.750000
vt 0.952639 1.000000
vt 0.891972 1.000000
vt 0.457952 0.500000
vt 0.434439 0.500000
vt 0.891972 0.377737
vt 0.737076 0.377737
vt 0.737076 0.250000
vt 0.891972 0.250000
vt 0.143276 1.000000
vt 0.000000 1.000000
vt 0.831621 0.500000
vt 0.891972 0.500000
vt 0.891972 0.125000
vt 0.737076 0.125000
vt 0.737076 0.000000
vt 0.891972 0.000000
vt 0.777013 0.500000
vt 0.831621 0.500000
vt 0.143276 0.955928
vt 0.286552 0.955928
vt 0.560109 0.250000
vt 0.560109 0.125000
vt 0.560109 0.000000
vt 0.737077 0.500000
vt 0.560109 0.500000
vt 0.560109 0.377737
vt 0.278733 0.500000
vt 0.100839 0.500000
vt 0.100839 0.375000
vt 0.278733 0.122263
vt 0.891972 0.500000
vt 0.337288 0.777501
vt 0.429828 0.777501
vt 0.278733 0.000000
vt 0.100839 0.122263
vt 0.069403 0.122263
vt 0.069403 0.000000
vt 0.100839 0.000000
vt 0.526994 0.377737
vt 0.526994 0.250000
vt 0.526994 0.125000
vt 0.526994 0.000000
vt 0.143276 0.600394
vt 0.235816 0.600394
vt 0.100839 0.250000
vt 0.337288 0.600394
vt 0.429828 0.600394
vt 0.069403 0.375000
vt 0.000000 0.375000
vt 0.000000 0.250000
vt 0.069403 0.250000
vt 0.143276 0.569097
vt 0.143276 0.500000
vt 0.253898 0.500000
vt 0.253898 0.569097
vt 0.000000 0.122263
vt 0.000000 0.000000
vt 0.457952 0.377737
vt 0.457952 0.250000
vt 0.319206 0.569097
vt 0.429828 0.569097
vt 0.069403 0.500000
vt 0.526994 0.500000
vt 1.000000 0.375000
vt 1.000000 0.500000
vt 0.891972 0.500000
vt 0.891972 0.375000
vt 1.000000 0.122263
vt 1.000000 0.250000
vt 0.891972 0.250000
vt 0.891972 0.122263
vt 1.000000 0.000000
vt 0.891972 0.000000
vt 0.319206 0.500000
vt 0.429828 0.500000
vt 0.000000 0.500000
vt 0.457952 0.500000
vt 0.457952 0.125000
vt 0.457952 0.000000
vn 0.0000 -1.0000 -0.0000
vn 0.0000 0.0000 -1.0000
vn 1.0000 0.0000 0.0000
vn -0.0000 0.0000 1.0000
vn -1.0000 0.0000 -0.0000
vn -0.0000 0.9073 0.4205
vn -0.0000 -0.4986 0.8668
vn 0.0000 1.0000 0.0000
usemtl Material.001
s off
f 25/1/1 26/2/1 3/3/1 4/4/1
f 33/5/2 36/6/2 8/7/2 1/8/2
f 1/9/3 8/10/3 7/11/3 2/12/3
f 26/13/4 27/14/4 6/15/4 3/16/4
f 6/17/4 10/18/4 9/19/4 5/20/4
f 3/21/5 6/22/5 5/23/5 4/24/5
f 10/25/5 14/26/5 13/27/5 9/28/5
f 27/29/4 29/30/4 10/18/4 6/17/4
f 36/31/4 38/32/4 12/33/4 8/34/4
f 8/34/4 12/33/4 11/35/4 7/36/4
f 16/37/3 43/38/3 44/39/3 15/40/3
f 29/41/6 31/42/6 14/43/6 10/44/6
f 38/45/2 40/46/2 16/47/2 12/48/2
f 12/49/5 11/50/5 15/51/5 16/52/5
f 30/53/2 32/54/2 24/55/2 22/56/2
f 37/57/6 39/58/6 23/59/6 21/60/6
f 32/54/2 46/61/2 50/62/2 24/55/2
f 28/63/4 30/64/4 22/65/4 20/66/4
f 35/67/4 37/68/4 21/69/4 19/70/4
f 34/71/4 35/72/4 19/73/4 18/74/4
f 25/75/2 28/76/2 20/77/2 17/78/2
f 33/79/1 34/80/1 18/81/1 17/82/1
f 4/83/2 5/84/2 28/76/2 25/75/2
f 5/20/4 9/19/4 30/64/4 28/63/4
f 9/85/2 13/86/2 32/54/2 30/53/2
f 21/60/6 23/59/6 31/42/6 29/41/6
f 39/87/4 47/88/4 48/89/4 23/90/4
f 19/70/4 21/69/4 29/30/4 27/29/4
f 18/74/4 19/73/4 27/14/4 26/13/4
f 17/82/1 18/81/1 26/2/1 25/1/1
f 1/91/1 2/92/1 34/80/1 33/79/1
f 2/93/4 7/94/4 35/72/4 34/71/4
f 7/36/4 11/35/4 37/68/4 35/67/4
f 31/95/4 41/96/4 42/97/4 14/98/4
f 11/99/6 15/100/6 39/58/6 37/57/6
f 22/56/2 24/55/2 40/46/2 38/45/2
f 20/66/4 22/65/4 38/32/4 36/31/4
f 17/78/2 20/77/2 36/6/2 33/5/2
f 16/37/3 15/40/3 12/101/3
f 12/101/3 15/40/3 11/102/3
f 13/27/5 9/28/5 14/26/5
f 14/26/5 9/28/5 10/25/5
f 48/89/4 58/103/4 51/104/4 41/96/4
f 41/96/4 51/104/4 52/105/4 42/97/4
f 44/106/4 54/107/4 57/108/4 47/88/4
f 45/109/2 55/110/2 56/111/2 46/61/2
f 24/55/2 50/62/2 49/112/2 40/46/2
f 15/113/4 44/106/4 47/88/4 39/87/4
f 14/26/5 42/114/5 45/115/5 13/27/5
f 40/46/2 49/112/2 43/116/2 16/47/2
f 23/90/4 48/89/4 41/96/4 31/95/4
f 13/86/2 45/109/2 46/61/2 32/54/2
f 59/117/2 69/118/2 63/119/2 53/120/2
f 57/108/7 67/121/7 68/122/7 58/103/7
f 58/103/7 68/122/7 61/123/7 51/104/7
f 51/104/7 61/123/7 62/124/7 52/105/7
f 47/88/4 57/108/4 58/103/4 48/89/4
f 49/112/2 59/117/2 53/120/2 43/116/2
f 43/38/3 53/125/3 54/126/3 44/39/3
f 46/61/2 56/111/2 60/127/2 50/62/2
f 50/62/2 60/127/2 59/117/2 49/112/2
f 42/114/5 52/128/5 55/129/5 45/115/5
f 66/130/2 76/131/2 80/132/2 70/133/2
f 63/134/3 73/135/3 74/136/3 64/137/3
f 69/118/2 79/138/2 73/139/2 63/119/2
f 67/121/4 77/140/4 78/141/4 68/122/4
f 53/125/3 63/134/3 64/137/3 54/126/3
f 56/111/2 66/130/2 70/133/2 60/127/2
f 60/127/2 70/133/2 69/118/2 59/117/2
f 52/128/5 62/142/5 65/143/5 55/129/5
f 55/110/2 65/144/2 66/130/2 56/111/2
f 54/107/7 64/145/7 67/121/7 57/108/7
f 76/146/8 75/147/8 72/148/8 71/149/8
f 79/150/8 80/151/8 78/152/8 77/153/8
f 80/151/8 76/146/8 71/149/8 78/152/8
f 73/154/8 79/150/8 77/153/8 74/155/8
f 70/133/2 80/132/2 79/138/2 69/118/2
f 62/142/5 72/156/5 75/157/5 65/143/5
f 65/144/2 75/158/2 76/131/2 66/130/2
f 64/145/4 74/159/4 77/140/4 67/121/4
f 61/123/4 71/160/4 72/161/4 62/124/4
f 68/122/4 78/141/4 71/160/4 61/123/4
